<svg width="28" height="30" viewBox="0 0 28 30" fill="none" xmlns="http://www.w3.org/2000/svg">
<rect width="28" height="30" rx="2" fill="#FDF8E2"/>
<path d="M13.5245 7.46353C13.6741 7.00287 14.3259 7.00287 14.4755 7.46353L15.9084 11.8734C15.9753 12.0794 16.1673 12.2188 16.3839 12.2188H21.0207C21.505 12.2188 21.7064 12.8387 21.3146 13.1234L17.5633 15.8488C17.3881 15.9761 17.3148 16.2018 17.3817 16.4078L18.8145 20.8176C18.9642 21.2783 18.437 21.6613 18.0451 21.3766L14.2939 18.6512C14.1186 18.5239 13.8814 18.5239 13.7061 18.6512L9.95488 21.3766C9.56303 21.6613 9.03578 21.2783 9.18546 20.8176L10.6183 16.4078C10.6852 16.2018 10.6119 15.9761 10.4367 15.8488L6.68544 13.1234C6.29358 12.8387 6.49497 12.2188 6.97933 12.2188H11.6161C11.8327 12.2188 12.0247 12.0794 12.0916 11.8734L13.5245 7.46353Z" fill="#FFD012"/>
</svg>
