<svg width="167" height="24" viewBox="0 0 167 24" fill="none" xmlns="http://www.w3.org/2000/svg">
<path d="M10.6719 19.0469L16.3438 0.75H21.1094L13.0781 23.5H9.90625L10.6719 19.0469ZM5.4375 0.75L11.0781 19.0469L11.8906 23.5H8.6875L0.6875 0.75H5.4375ZM31.6288 19.9062V12.1094C31.6288 11.5365 31.5298 11.0417 31.3319 10.625C31.134 10.2083 30.8319 9.88542 30.4256 9.65625C30.0194 9.42708 29.5038 9.3125 28.8788 9.3125C28.3267 9.3125 27.8423 9.40625 27.4256 9.59375C27.0194 9.78125 26.7069 10.0469 26.4881 10.3906C26.2694 10.724 26.16 11.1094 26.16 11.5469H22.0194C22.0194 10.849 22.1861 10.1875 22.5194 9.5625C22.8527 8.92708 23.3267 8.36458 23.9413 7.875C24.5663 7.375 25.3111 6.98438 26.1756 6.70312C27.0506 6.42188 28.0298 6.28125 29.1131 6.28125C30.3944 6.28125 31.535 6.5 32.535 6.9375C33.5454 7.36458 34.3371 8.01042 34.91 8.875C35.4934 9.73958 35.785 10.8281 35.785 12.1406V19.5156C35.785 20.3594 35.8371 21.0833 35.9413 21.6875C36.0559 22.2812 36.2225 22.7969 36.4413 23.2344V23.5H32.2381C32.0402 23.0729 31.8892 22.5312 31.785 21.875C31.6809 21.2083 31.6288 20.5521 31.6288 19.9062ZM32.2069 13.2031L32.2381 15.6562H29.6288C28.9829 15.6562 28.4152 15.724 27.9256 15.8594C27.4361 15.9844 27.035 16.1719 26.7225 16.4219C26.41 16.6615 26.1756 16.9531 26.0194 17.2969C25.8631 17.6302 25.785 18.0104 25.785 18.4375C25.785 18.8542 25.8788 19.2292 26.0663 19.5625C26.2642 19.8958 26.5454 20.1615 26.91 20.3594C27.285 20.5469 27.7225 20.6406 28.2225 20.6406C28.9517 20.6406 29.5871 20.4948 30.1288 20.2031C30.6704 19.901 31.0923 19.5365 31.3944 19.1094C31.6965 18.6823 31.8579 18.276 31.8788 17.8906L33.0663 19.6719C32.9204 20.099 32.7017 20.5521 32.41 21.0312C32.1184 21.5104 31.7434 21.9583 31.285 22.375C30.8267 22.7917 30.2746 23.1354 29.6288 23.4062C28.9829 23.6771 28.2329 23.8125 27.3788 23.8125C26.285 23.8125 25.3059 23.5938 24.4413 23.1562C23.5767 22.7188 22.8944 22.1198 22.3944 21.3594C21.8944 20.599 21.6444 19.7344 21.6444 18.7656C21.6444 17.8698 21.8111 17.0781 22.1444 16.3906C22.4777 15.7031 22.9725 15.125 23.6288 14.6562C24.285 14.1771 25.0975 13.8177 26.0663 13.5781C27.0454 13.3281 28.1652 13.2031 29.4256 13.2031H32.2069ZM46.3357 20.5625C46.919 20.5625 47.4398 20.4479 47.8982 20.2188C48.3565 19.9896 48.7211 19.6667 48.9919 19.25C49.2732 18.8333 49.4242 18.349 49.445 17.7969H53.3357C53.3148 18.9427 52.9919 19.9688 52.3669 20.875C51.7419 21.7812 50.9086 22.5 49.8669 23.0312C48.8357 23.5521 47.6794 23.8125 46.3982 23.8125C45.0961 23.8125 43.9607 23.5938 42.9919 23.1562C42.0232 22.7188 41.2159 22.1094 40.57 21.3281C39.9346 20.5469 39.4555 19.6406 39.1325 18.6094C38.82 17.5781 38.6638 16.474 38.6638 15.2969V14.7969C38.6638 13.6198 38.82 12.5156 39.1325 11.4844C39.4555 10.4531 39.9346 9.54688 40.57 8.76562C41.2159 7.98438 42.0232 7.375 42.9919 6.9375C43.9607 6.5 45.0909 6.28125 46.3825 6.28125C47.7471 6.28125 48.945 6.54688 49.9763 7.07812C51.018 7.60938 51.8305 8.35938 52.4138 9.32812C53.0075 10.2969 53.3148 11.4375 53.3357 12.75H49.445C49.4242 12.1458 49.2888 11.6042 49.0388 11.125C48.7888 10.6458 48.4346 10.2604 47.9763 9.96875C47.518 9.67708 46.9607 9.53125 46.3044 9.53125C45.6065 9.53125 45.0232 9.67708 44.5544 9.96875C44.0961 10.2604 43.7367 10.6615 43.4763 11.1719C43.2263 11.6719 43.0492 12.2344 42.945 12.8594C42.8513 13.474 42.8044 14.1198 42.8044 14.7969V15.2969C42.8044 15.9844 42.8513 16.6406 42.945 17.2656C43.0492 17.8906 43.2263 18.4531 43.4763 18.9531C43.7367 19.4427 44.0961 19.8333 44.5544 20.125C45.0232 20.4167 45.6169 20.5625 46.3357 20.5625ZM62.9176 20.5625C63.5009 20.5625 64.0217 20.4479 64.4801 20.2188C64.9384 19.9896 65.303 19.6667 65.5738 19.25C65.8551 18.8333 66.0061 18.349 66.027 17.7969H69.9176C69.8967 18.9427 69.5738 19.9688 68.9488 20.875C68.3238 21.7812 67.4905 22.5 66.4488 23.0312C65.4176 23.5521 64.2613 23.8125 62.9801 23.8125C61.678 23.8125 60.5426 23.5938 59.5738 23.1562C58.6051 22.7188 57.7978 22.1094 57.152 21.3281C56.5165 20.5469 56.0374 19.6406 55.7145 18.6094C55.402 17.5781 55.2457 16.474 55.2457 15.2969V14.7969C55.2457 13.6198 55.402 12.5156 55.7145 11.4844C56.0374 10.4531 56.5165 9.54688 57.152 8.76562C57.7978 7.98438 58.6051 7.375 59.5738 6.9375C60.5426 6.5 61.6728 6.28125 62.9645 6.28125C64.329 6.28125 65.527 6.54688 66.5582 7.07812C67.5999 7.60938 68.4124 8.35938 68.9957 9.32812C69.5895 10.2969 69.8967 11.4375 69.9176 12.75H66.027C66.0061 12.1458 65.8707 11.6042 65.6207 11.125C65.3707 10.6458 65.0165 10.2604 64.5582 9.96875C64.0999 9.67708 63.5426 9.53125 62.8863 9.53125C62.1884 9.53125 61.6051 9.67708 61.1363 9.96875C60.678 10.2604 60.3186 10.6615 60.0582 11.1719C59.8082 11.6719 59.6311 12.2344 59.527 12.8594C59.4332 13.474 59.3863 14.1198 59.3863 14.7969V15.2969C59.3863 15.9844 59.4332 16.6406 59.527 17.2656C59.6311 17.8906 59.8082 18.4531 60.0582 18.9531C60.3186 19.4427 60.678 19.8333 61.1363 20.125C61.6051 20.4167 62.1988 20.5625 62.9176 20.5625ZM76.937 6.59375V23.5H72.7963V6.59375H76.937ZM72.5151 2.17188C72.5151 1.55729 72.7234 1.04688 73.1401 0.640625C73.5672 0.234375 74.1401 0.03125 74.8588 0.03125C75.5776 0.03125 76.1453 0.234375 76.562 0.640625C76.9891 1.04688 77.2026 1.55729 77.2026 2.17188C77.2026 2.77604 76.9891 3.28125 76.562 3.6875C76.1453 4.09375 75.5776 4.29688 74.8588 4.29688C74.1401 4.29688 73.5672 4.09375 73.1401 3.6875C72.7234 3.28125 72.5151 2.77604 72.5151 2.17188ZM84.8158 10.2031V23.5H80.6908V6.59375H84.5658L84.8158 10.2031ZM84.1595 14.4375H82.9408C82.9512 13.2083 83.1178 12.0938 83.4408 11.0938C83.7637 10.0938 84.2168 9.23438 84.8001 8.51562C85.3939 7.79688 86.097 7.24479 86.9095 6.85938C87.722 6.47396 88.6283 6.28125 89.6283 6.28125C90.4408 6.28125 91.1751 6.39583 91.8314 6.625C92.4876 6.85417 93.0501 7.21875 93.5189 7.71875C93.998 8.21875 94.3626 8.875 94.6126 9.6875C94.873 10.4896 95.0033 11.4792 95.0033 12.6562V23.5H90.847V12.625C90.847 11.8542 90.7324 11.2448 90.5033 10.7969C90.2845 10.349 89.9616 10.0312 89.5345 9.84375C89.1178 9.65625 88.6022 9.5625 87.9876 9.5625C87.3522 9.5625 86.7949 9.69271 86.3158 9.95312C85.847 10.2031 85.4512 10.5521 85.1283 11C84.8158 11.4479 84.5762 11.9635 84.4095 12.5469C84.2428 13.1302 84.1595 13.7604 84.1595 14.4375ZM107.851 19.9062V12.1094C107.851 11.5365 107.752 11.0417 107.554 10.625C107.356 10.2083 107.054 9.88542 106.648 9.65625C106.241 9.42708 105.726 9.3125 105.101 9.3125C104.549 9.3125 104.064 9.40625 103.648 9.59375C103.241 9.78125 102.929 10.0469 102.71 10.3906C102.491 10.724 102.382 11.1094 102.382 11.5469H98.2414C98.2414 10.849 98.4081 10.1875 98.7414 9.5625C99.0747 8.92708 99.5487 8.36458 100.163 7.875C100.788 7.375 101.533 6.98438 102.398 6.70312C103.273 6.42188 104.252 6.28125 105.335 6.28125C106.616 6.28125 107.757 6.5 108.757 6.9375C109.767 7.36458 110.559 8.01042 111.132 8.875C111.715 9.73958 112.007 10.8281 112.007 12.1406V19.5156C112.007 20.3594 112.059 21.0833 112.163 21.6875C112.278 22.2812 112.445 22.7969 112.663 23.2344V23.5H108.46C108.262 23.0729 108.111 22.5312 108.007 21.875C107.903 21.2083 107.851 20.5521 107.851 19.9062ZM108.429 13.2031L108.46 15.6562H105.851C105.205 15.6562 104.637 15.724 104.148 15.8594C103.658 15.9844 103.257 16.1719 102.945 16.4219C102.632 16.6615 102.398 16.9531 102.241 17.2969C102.085 17.6302 102.007 18.0104 102.007 18.4375C102.007 18.8542 102.101 19.2292 102.288 19.5625C102.486 19.8958 102.767 20.1615 103.132 20.3594C103.507 20.5469 103.945 20.6406 104.445 20.6406C105.174 20.6406 105.809 20.4948 106.351 20.2031C106.892 19.901 107.314 19.5365 107.616 19.1094C107.918 18.6823 108.08 18.276 108.101 17.8906L109.288 19.6719C109.142 20.099 108.924 20.5521 108.632 21.0312C108.34 21.5104 107.965 21.9583 107.507 22.375C107.049 22.7917 106.497 23.1354 105.851 23.4062C105.205 23.6771 104.455 23.8125 103.601 23.8125C102.507 23.8125 101.528 23.5938 100.663 23.1562C99.7987 22.7188 99.1164 22.1198 98.6164 21.3594C98.1164 20.599 97.8664 19.7344 97.8664 18.7656C97.8664 17.8698 98.0331 17.0781 98.3664 16.3906C98.6997 15.7031 99.1945 15.125 99.8508 14.6562C100.507 14.1771 101.32 13.8177 102.288 13.5781C103.267 13.3281 104.387 13.2031 105.648 13.2031H108.429ZM123.62 6.59375V9.5625H113.933V6.59375H123.62ZM116.526 2.4375H120.667V18.625C120.667 19.125 120.735 19.5104 120.87 19.7812C121.006 20.0521 121.209 20.2344 121.48 20.3281C121.75 20.4219 122.073 20.4688 122.448 20.4688C122.719 20.4688 122.969 20.4531 123.198 20.4219C123.427 20.3906 123.62 20.3594 123.776 20.3281L123.792 23.4219C123.448 23.5365 123.058 23.6302 122.62 23.7031C122.193 23.776 121.709 23.8125 121.167 23.8125C120.24 23.8125 119.427 23.6562 118.73 23.3438C118.032 23.0208 117.49 22.5052 117.105 21.7969C116.719 21.0781 116.526 20.1302 116.526 18.9531V2.4375ZM130.64 6.59375V23.5H126.499V6.59375H130.64ZM126.218 2.17188C126.218 1.55729 126.426 1.04688 126.843 0.640625C127.27 0.234375 127.843 0.03125 128.561 0.03125C129.28 0.03125 129.848 0.234375 130.265 0.640625C130.692 1.04688 130.905 1.55729 130.905 2.17188C130.905 2.77604 130.692 3.28125 130.265 3.6875C129.848 4.09375 129.28 4.29688 128.561 4.29688C127.843 4.29688 127.27 4.09375 126.843 3.6875C126.426 3.28125 126.218 2.77604 126.218 2.17188ZM133.737 15.2188V14.8906C133.737 13.651 133.914 12.5104 134.268 11.4688C134.623 10.4167 135.138 9.50521 135.815 8.73438C136.492 7.96354 137.32 7.36458 138.3 6.9375C139.279 6.5 140.393 6.28125 141.643 6.28125C142.914 6.28125 144.039 6.5 145.018 6.9375C146.008 7.36458 146.841 7.96354 147.518 8.73438C148.195 9.50521 148.711 10.4167 149.065 11.4688C149.419 12.5104 149.596 13.651 149.596 14.8906V15.2188C149.596 16.4479 149.419 17.5885 149.065 18.6406C148.711 19.6823 148.195 20.5938 147.518 21.375C146.841 22.1458 146.013 22.7448 145.034 23.1719C144.055 23.599 142.935 23.8125 141.675 23.8125C140.425 23.8125 139.305 23.599 138.315 23.1719C137.326 22.7448 136.492 22.1458 135.815 21.375C135.138 20.5938 134.623 19.6823 134.268 18.6406C133.914 17.5885 133.737 16.4479 133.737 15.2188ZM137.862 14.8906V15.2188C137.862 15.9583 137.935 16.651 138.081 17.2969C138.227 17.9427 138.451 18.5104 138.753 19C139.055 19.4896 139.445 19.875 139.925 20.1562C140.414 20.4271 140.998 20.5625 141.675 20.5625C142.341 20.5625 142.914 20.4271 143.393 20.1562C143.873 19.875 144.263 19.4896 144.565 19C144.878 18.5104 145.107 17.9427 145.253 17.2969C145.399 16.651 145.471 15.9583 145.471 15.2188V14.8906C145.471 14.1615 145.399 13.4792 145.253 12.8438C145.107 12.1979 144.878 11.6302 144.565 11.1406C144.263 10.6406 143.867 10.25 143.378 9.96875C142.899 9.67708 142.32 9.53125 141.643 9.53125C140.977 9.53125 140.404 9.67708 139.925 9.96875C139.445 10.25 139.055 10.6406 138.753 11.1406C138.451 11.6302 138.227 12.1979 138.081 12.8438C137.935 13.4792 137.862 14.1615 137.862 14.8906ZM156.538 10.2031V23.5H152.413V6.59375H156.288L156.538 10.2031ZM155.882 14.4375H154.663C154.673 13.2083 154.84 12.0938 155.163 11.0938C155.486 10.0938 155.939 9.23438 156.522 8.51562C157.116 7.79688 157.819 7.24479 158.632 6.85938C159.444 6.47396 160.35 6.28125 161.35 6.28125C162.163 6.28125 162.897 6.39583 163.553 6.625C164.21 6.85417 164.772 7.21875 165.241 7.71875C165.72 8.21875 166.085 8.875 166.335 9.6875C166.595 10.4896 166.725 11.4792 166.725 12.6562V23.5H162.569V12.625C162.569 11.8542 162.454 11.2448 162.225 10.7969C162.007 10.349 161.684 10.0312 161.257 9.84375C160.84 9.65625 160.324 9.5625 159.71 9.5625C159.074 9.5625 158.517 9.69271 158.038 9.95312C157.569 10.2031 157.173 10.5521 156.85 11C156.538 11.4479 156.298 11.9635 156.132 12.5469C155.965 13.1302 155.882 13.7604 155.882 14.4375Z" fill="#2C4CCA"/>
</svg>
